<svg width="current" height="current" viewBox="0 0 75 88" fill="none" xmlns="http://www.w3.org/2000/svg">
<g clip-path="url(#clip0_1_2)">
<path d="M18.02 15.3893C4.21333 29.1973 3.46 51.1106 15.7507 65.812C18.9427 61.6346 23.304 56.8186 28.6667 53.0519C32.848 50.1133 38.6587 47.1693 43.3213 46.7306C47.7373 46.3146 54.3147 46.7386 58.2973 48.6533C55.1827 45.4573 51.9 41.8773 50.292 39.7333C48.2053 36.952 46.9693 33.4933 46.9693 29.744C46.9693 20.556 54.396 13.108 63.5653 13.108C65.7827 13.108 67.8947 13.5466 69.832 14.3386C62.6773 7.7346 53.5733 4.43194 44.4693 4.43194C34.896 4.43194 25.324 8.08397 18.02 15.3893" fill="url(#paint0_linear_1_2)"/>
<path d="M19.176 14.288L45.6733 41.868L45.7893 41.9106L28.2493 8.12398C25.0093 9.68398 21.948 11.7413 19.176 14.288" fill="url(#paint1_linear_1_2)"/>
<path d="M39.0893 4.82662L45.8427 41.9347L45.8813 41.944L48.1987 4.62931C46.9573 4.50398 45.7093 4.44263 44.46 4.44263C42.6653 4.44263 40.8693 4.57062 39.0893 4.82662" fill="url(#paint2_linear_1_2)"/>
<path d="M7.23199 38.372L45.7653 41.9653L45.6733 41.8679L9.54266 28.4413C8.316 31.648 7.54133 34.9893 7.23199 38.372" fill="url(#paint3_linear_1_2)"/>
<path d="M7.45865 47.2226C7.83598 49.8266 8.49198 52.4053 9.42132 54.9L45.6613 42.0573L7.45865 47.2226Z" fill="url(#paint4_linear_1_2)"/>
<path d="M15.0573 74.9576C13.9693 74.0042 12.1053 72.2469 10.4373 70.0962C2.80132 61.5282 -5.92534 39.0482 8.59466 18.6602C14.5853 10.2549 23.1827 4.59756 31.7227 2.30423C51.6427 -3.04777 66.9413 6.36423 73.9506 13.9469C74.7293 14.7909 74.62 15.8696 74.0253 16.3642C73.156 17.0962 72.372 16.7176 70.6253 16.2069C67.888 15.4162 65.5413 15.2309 63.0187 15.5482C57.164 16.2989 52.0973 21.7229 52.7987 29.3042C53.4413 36.2229 58.7733 41.2176 62.5173 44.5229C75.6827 56.1082 71.2813 68.5309 70.2053 71.2602C66.568 80.5229 57.2467 87.0589 45.1547 87.0589C40.1373 87.0589 32.88 85.7549 25.5893 81.1296C25.3053 81.0069 25.0307 80.6296 25.372 80.0096C25.928 78.6002 28.2587 74.4936 29.2613 73.3069C32.8867 77.4936 39.0027 81.4362 45.796 81.6842C55.0867 82.0229 61.068 76.9962 63.2627 70.6162C65.7293 63.4549 63.1053 56.1482 56.164 49.5562C50.184 43.8789 44.8453 38.6162 44.5307 29.6029C44.1373 18.0616 54.1907 11.2069 63.524 11.6682C63.8106 11.6816 50.612 2.16023 33.6813 7.82956C25.3947 10.6082 20.4333 15.5016 18.0533 18.2829C17.7 18.7149 17.9213 19.0402 18.0413 19.2149C18.308 19.5936 24.06 27.6242 24.06 27.6242L13.68 25.2362C13.68 25.2362 13.2493 25.1296 13.0333 25.4842C9.73066 31.1736 4.86932 47.6296 15.7307 62.6162C15.7307 62.6162 24.9787 47.9656 43.3467 46.7149C44.5693 46.6349 44.412 47.0696 43.6093 47.3616C27.2027 53.3896 20.7307 65.4242 16.5453 74.7002C16.292 75.2749 15.6093 75.4442 15.0573 74.9576Z" fill="#003C71"/>
<path d="M31.9675 63.6528C31.9675 63.6528 32.9901 63.1941 33.2808 63.0328L33.2875 70.1475H34.5675V61.7781L34.3621 61.6395L34.2955 61.6741C33.3608 62.1368 32.4008 62.5741 31.5888 62.9101L31.9675 63.6528Z" fill="#76777B"/>
<path d="M38.8028 65.9653C39.8494 65.9653 40.3548 66.5039 40.3548 67.6079C40.3548 68.7386 39.6534 69.4679 38.5681 69.4679C37.7814 69.4679 37.2468 68.9413 37.0548 68.7159L36.8974 68.5306L36.5854 69.6373L36.6854 69.6813C37.1334 69.8946 37.7068 70.1133 38.5414 70.1133C40.3788 70.1133 41.7108 68.9959 41.7108 67.4573C41.7108 66.0466 40.6228 65.6399 39.9574 65.5199C40.6841 65.2173 41.3308 64.5533 41.3308 63.5506C41.3308 62.3799 40.4094 61.6586 38.9228 61.6533C37.6654 61.6453 37.0228 62.4679 37.0228 62.4679L37.5748 63.4266L37.6654 63.1599C37.8134 62.7253 38.2774 62.2879 38.8788 62.2879C39.4068 62.2879 40.0254 62.6399 40.0254 63.6293C40.0254 64.3999 39.8161 65.3199 38.8028 65.3199L38.1401 65.2653V66.0559C38.1401 66.0559 38.5108 65.9573 38.8028 65.9653" fill="#76777B"/>
<path d="M45.8112 66.1295C44.9085 66.1295 44.4699 65.5388 44.4699 64.3295C44.4699 63.1108 45.0565 62.2881 45.9299 62.2881C46.7965 62.2881 47.3832 62.9868 47.3832 64.0228C47.3832 65.0695 46.8445 66.1295 45.8112 66.1295ZM43.4672 68.4521L43.8085 69.8068C43.8085 69.8068 44.3419 70.1135 45.0912 70.1135C47.2419 70.1028 48.7379 68.0988 48.7379 65.2135C48.7379 61.9961 46.7792 61.6535 45.9365 61.6535C44.3045 61.6535 43.1645 62.7521 43.1645 64.3295C43.1645 65.8775 44.0992 66.8321 45.6032 66.8321C46.3712 66.8321 46.9699 66.5308 47.4152 65.9735C47.3219 67.7681 46.6152 69.4055 45.1512 69.4161C43.9672 69.4241 43.4672 68.4521 43.4672 68.4521" fill="#76777B"/>
<path d="M52.651 69.468C51.767 69.468 51.1657 68.716 51.1657 67.596C51.1657 66.476 51.767 65.7253 52.651 65.7253C53.5337 65.7253 54.1324 66.476 54.1324 67.596C54.1324 68.7307 53.5537 69.468 52.651 69.468ZM51.5177 63.6867C51.5177 63.3587 51.5977 62.288 52.6604 62.288C53.7057 62.288 53.8257 63.2653 53.8257 63.6867C53.8257 64.012 53.7417 65.0827 52.6604 65.0827C51.5977 65.0827 51.5177 64.012 51.5177 63.6867ZM53.8537 65.304C54.5804 64.9733 55.055 64.3147 55.055 63.5307C55.055 62.6627 54.427 61.6533 52.651 61.6533C51.3004 61.6533 50.2857 62.5227 50.2857 63.6707C50.2857 64.5307 50.871 65.1347 51.4964 65.364C50.4497 65.78 49.8644 66.5773 49.8644 67.656C49.8644 69.124 50.9804 70.1133 52.651 70.1133C54.267 70.1133 55.4457 68.9653 55.4457 67.3853C55.4457 65.9213 54.3644 65.4467 53.8537 65.304" fill="#76777B"/>
</g>
<defs>
<linearGradient id="paint0_linear_1_2" x1="51.4546" y1="44.4042" x2="20.7435" y2="27.032" gradientUnits="userSpaceOnUse">
<stop stop-color="white"/>
<stop offset="0.2" stop-color="#E7EB8E"/>
<stop offset="0.76" stop-color="#AACC03"/>
<stop offset="1" stop-color="#8DC21F"/>
</linearGradient>
<linearGradient id="paint1_linear_1_2" x1="48.8957" y1="32.9787" x2="20.2564" y2="13.824" gradientUnits="userSpaceOnUse">
<stop stop-color="#E5EA90"/>
<stop offset="0.124298" stop-color="#C7DA58"/>
<stop offset="0.2" stop-color="#C7DA58"/>
<stop offset="0.4" stop-color="#A1C710"/>
<stop offset="0.933381" stop-color="#65B12F"/>
<stop offset="1" stop-color="#65B12F"/>
</linearGradient>
<linearGradient id="paint2_linear_1_2" x1="52.7961" y1="27.1442" x2="24.1598" y2="7.99139" gradientUnits="userSpaceOnUse">
<stop stop-color="#E5EA90"/>
<stop offset="0.124298" stop-color="#C7DA58"/>
<stop offset="0.2" stop-color="#C7DA58"/>
<stop offset="0.4" stop-color="#A1C710"/>
<stop offset="0.933381" stop-color="#65B12F"/>
<stop offset="1" stop-color="#65B12F"/>
</linearGradient>
<linearGradient id="paint3_linear_1_2" x1="38.6571" y1="48.2828" x2="10.0203" y2="29.1297" gradientUnits="userSpaceOnUse">
<stop stop-color="#E5EA90"/>
<stop offset="0.124298" stop-color="#C7DA58"/>
<stop offset="0.2" stop-color="#C7DA58"/>
<stop offset="0.4" stop-color="#A1C710"/>
<stop offset="0.933381" stop-color="#65B12F"/>
<stop offset="1" stop-color="#65B12F"/>
</linearGradient>
<linearGradient id="paint4_linear_1_2" x1="35.1297" y1="53.5537" x2="6.49529" y2="34.4022" gradientUnits="userSpaceOnUse">
<stop stop-color="#E5EA90"/>
<stop offset="0.124298" stop-color="#C7DA58"/>
<stop offset="0.2" stop-color="#C7DA58"/>
<stop offset="0.4" stop-color="#A1C710"/>
<stop offset="0.933381" stop-color="#65B12F"/>
<stop offset="1" stop-color="#65B12F"/>
</linearGradient>
<clipPath id="clip0_1_2">
<rect width="75" height="88" fill="white"/>
</clipPath>
</defs>
</svg>
